<?xml version="1.0" encoding="UTF-8" standalone="no"?>
<!-- Created with Inkscape (http://www.inkscape.org/) -->

<svg
   width="135.46666mm"
   height="135.46666mm"
   viewBox="0 0 135.46666 135.46667"
   version="1.1"
   id="svg5"
   xml:space="preserve"
   inkscape:version="1.2.2 (b0a8486541, 2022-12-01)"
   sodipodi:docname="logo.svg"
   inkscape:export-filename="logo.png"
   inkscape:export-xdpi="96.000008"
   inkscape:export-ydpi="96.000008"
   xmlns:inkscape="http://www.inkscape.org/namespaces/inkscape"
   xmlns:sodipodi="http://sodipodi.sourceforge.net/DTD/sodipodi-0.dtd"
   xmlns="http://www.w3.org/2000/svg"
   xmlns:svg="http://www.w3.org/2000/svg"><sodipodi:namedview
     id="namedview7"
     pagecolor="#ffffff"
     bordercolor="#000000"
     borderopacity="0.25"
     inkscape:showpageshadow="2"
     inkscape:pageopacity="0.0"
     inkscape:pagecheckerboard="0"
     inkscape:deskcolor="#d1d1d1"
     inkscape:document-units="px"
     showgrid="false"
     inkscape:zoom="0.9724757"
     inkscape:cx="301.80703"
     inkscape:cy="136.76434"
     inkscape:window-width="1920"
     inkscape:window-height="999"
     inkscape:window-x="0"
     inkscape:window-y="0"
     inkscape:window-maximized="1"
     inkscape:current-layer="layer1" /><defs
     id="defs2" /><g
     inkscape:label="Layer 1"
     inkscape:groupmode="layer"
     id="layer1"
     transform="translate(-37.266663,-80.766663)"><rect
       style="fill:#f2f2f2;fill-opacity:1;stroke-width:2.91758;stroke-linecap:round;stroke-linejoin:round;stroke-opacity:0.298039"
       id="rect1428"
       width="135.46667"
       height="135.46667"
       x="37.266663"
       y="80.766663"
       rx="53.718224"
       ry="53.718224" /><g
       id="g1238"
       transform="translate(-3.4121261,-21.07992)"><path
         style="fill:#12c5a5;fill-opacity:1;stroke-width:0.264583"
         d="m 55.424413,159.54448 c -3.452944,-5.50159 -6.278081,-10.20315 -6.278081,-10.44791 0,-0.66638 0.71537,-1.91954 1.202479,-2.10646 0.235565,-0.0904 2.998513,-0.16435 6.139884,-0.16435 h 5.711584 l 3.116686,3.10885 3.116687,3.10885 -3.281738,8.16811 c -1.804955,4.49247 -3.319466,8.20585 -3.365579,8.25196 -0.04611,0.0461 -2.908977,-4.41746 -6.361922,-9.91905 z"
         id="path1023" /><path
         style="fill:#12c5a5;fill-opacity:1;stroke-width:0.264583"
         d="m 65.889388,170.83669 c 0.07201,-0.1819 3.620295,-9.05205 7.885085,-19.71146 l 7.754164,-19.38072 h 17.344545 17.344558 l -18.428423,18.42841 -18.428411,18.42841 -6.442183,1.27526 c -7.165117,1.41836 -7.213346,1.42495 -7.029335,0.9601 z"
         id="path1021" /><path
         style="fill:#0c7e6a;fill-opacity:1;stroke-width:0.264583"
         d="m 94.341376,171.09728 -5.472663,-5.88298 13.398657,-13.41707 c 7.36926,-7.37938 13.46336,-13.35271 13.54246,-13.27405 0.26192,0.2605 5.7735,27.74575 5.60188,27.93559 -0.15236,0.16854 -21.3512,10.5349 -21.524245,10.52549 -0.04039,-0.002 -2.536126,-2.65133 -5.546089,-5.88698 z"
         id="path1019" /><path
         style="fill:#12c5a5;fill-opacity:1;stroke-width:0.264583"
         d="m 159.09842,182.66366 c -0.35612,-0.18476 -1.48805,-1.00659 -2.51541,-1.82631 l -1.86793,-1.49039 v -8.7934 c 0,-7.64942 0.0553,-8.87239 0.42531,-9.40061 0.42434,-0.60583 0.43808,-0.59464 6.01927,4.90207 5.93868,5.84877 6.51551,6.50367 6.51826,7.40034 0.002,0.52164 -4.50535,6.9667 -6.01383,8.59995 -0.78114,0.84574 -1.69187,1.06168 -2.56567,0.60835 z"
         id="path1017" /><path
         style="fill:#0c7e6a;fill-opacity:1;stroke-width:0.264583"
         d="m 133.0652,207.14707 c -0.46655,-0.19616 -1.60842,-2.28583 -4.71807,-8.63425 l -4.10255,-8.37545 0.88161,-0.85133 c 0.48488,-0.46823 5.76317,-5.40992 11.72952,-10.98153 5.96635,-5.57162 11.47299,-10.73261 12.23698,-11.46888 l 1.38906,-1.33867 v 20.6663 c 0,19.42505 -0.0278,20.67902 -0.46302,20.87824 -0.69185,0.3167 -16.2214,0.41339 -16.95353,0.10557 z"
         id="path1015" /><path
         style="fill:#12c5a5;fill-opacity:1;stroke-width:0.264583"
         d="m 89.21868,206.7659 -0.649433,-0.64943 v -17.52745 c 0,-9.64008 0.100264,-17.41432 0.222806,-17.27608 1.161322,1.31012 8.723828,9.38506 9.217892,9.8425 0.353637,0.32742 0.925026,0.59531 1.269754,0.59531 0.344725,0 6.401001,-2.81045 13.458391,-6.24545 11.21203,-5.45716 12.87107,-6.34071 13.14423,-7.00019 0.2695,-0.65061 0.0126,-2.23637 -1.86251,-11.49468 -1.19633,-5.90698 -2.11584,-10.79926 -2.04336,-10.87174 0.0725,-0.0725 6.48606,2.41003 14.25239,5.51667 l 14.12062,5.64845 v 1.26687 1.26686 l -25.39431,23.7889 -25.394323,23.78889 H 94.71447 c -4.792739,0 -4.853546,-0.007 -5.49579,-0.64943 z"
         id="path302" /></g></g></svg>
